<svg width="23" height="23" viewBox="0 0 23 23" fill="none" xmlns="http://www.w3.org/2000/svg">
<path d="M11.2002 0C17.3858 1.28849e-07 22.4004 5.01461 22.4004 11.2002C22.4004 17.3858 17.3858 22.4004 11.2002 22.4004C5.01461 22.4004 1.28853e-07 17.3858 0 11.2002C0 5.01461 5.01461 0 11.2002 0ZM11.2002 4.60059C10.6479 4.60059 10.2002 5.0483 10.2002 5.60059V11.2002C10.2003 11.4652 10.3058 11.7198 10.4932 11.9072L14.4531 15.8672C14.8436 16.2575 15.4767 16.2575 15.8672 15.8672C16.2575 15.4767 16.2575 14.8436 15.8672 14.4531L12.2002 10.7861V5.60059C12.2002 5.0483 11.7525 4.60059 11.2002 4.60059Z" fill="#4C9DA6"/>
</svg>
