<svg width="32" height="32" viewBox="0 0 32 32" fill="none" xmlns="http://www.w3.org/2000/svg">
<path d="M17 17C17 17.5523 16.5523 18 16 18C15.4477 18 15 17.5523 15 17C15 16.4477 15.4477 16 16 16C16.5523 16 17 16.4477 17 17Z" fill="#7B57C2"/>
<path d="M10 21C10.5523 21 11 20.5523 11 20C11 19.4477 10.5523 19 10 19C9.44771 19 9 19.4477 9 20C9 20.5523 9.44771 21 10 21Z" fill="#7B57C2"/>
<path d="M11 23C11 23.5523 10.5523 24 10 24C9.44771 24 9 23.5523 9 23C9 22.4477 9.44771 22 10 22C10.5523 22 11 22.4477 11 23Z" fill="#7B57C2"/>
<path d="M13 21C13.5523 21 14 20.5523 14 20C14 19.4477 13.5523 19 13 19C12.4477 19 12 19.4477 12 20C12 20.5523 12.4477 21 13 21Z" fill="#7B57C2"/>
<path d="M14 23C14 23.5523 13.5523 24 13 24C12.4477 24 12 23.5523 12 23C12 22.4477 12.4477 22 13 22C13.5523 22 14 22.4477 14 23Z" fill="#7B57C2"/>
<path d="M16 21C16.5523 21 17 20.5523 17 20C17 19.4477 16.5523 19 16 19C15.4477 19 15 19.4477 15 20C15 20.5523 15.4477 21 16 21Z" fill="#7B57C2"/>
<path d="M17 23C17 23.5523 16.5523 24 16 24C15.4477 24 15 23.5523 15 23C15 22.4477 15.4477 22 16 22C16.5523 22 17 22.4477 17 23Z" fill="#7B57C2"/>
<path d="M19 21C19.5523 21 20 20.5523 20 20C20 19.4477 19.5523 19 19 19C18.4477 19 18 19.4477 18 20C18 20.5523 18.4477 21 19 21Z" fill="#7B57C2"/>
<path d="M20 23C20 23.5523 19.5523 24 19 24C18.4477 24 18 23.5523 18 23C18 22.4477 18.4477 22 19 22C19.5523 22 20 22.4477 20 23Z" fill="#7B57C2"/>
<path d="M22 21C22.5523 21 23 20.5523 23 20C23 19.4477 22.5523 19 22 19C21.4477 19 21 19.4477 21 20C21 20.5523 21.4477 21 22 21Z" fill="#7B57C2"/>
<path d="M20 17C20 17.5523 19.5523 18 19 18C18.4477 18 18 17.5523 18 17C18 16.4477 18.4477 16 19 16C19.5523 16 20 16.4477 20 17Z" fill="#7B57C2"/>
<path d="M22 18C22.5523 18 23 17.5523 23 17C23 16.4477 22.5523 16 22 16C21.4477 16 21 16.4477 21 17C21 17.5523 21.4477 18 22 18Z" fill="#7B57C2"/>
<path fill-rule="evenodd" clip-rule="evenodd" d="M9 3C9.55228 3 10 3.44772 10 4V6H22V4C22 3.44772 22.4477 3 23 3C23.5523 3 24 3.44772 24 4V6H25C27.2091 6 29 7.79086 29 10V25C29 27.2091 27.2091 29 25 29H7C4.79086 29 3 27.2091 3 25V10C3 7.79086 4.79086 6 7 6H8V4C8 3.44772 8.44772 3 9 3ZM27 15C27 13.8954 26.1046 13 25 13H7C5.89543 13 5 13.8954 5 15V25C5 26.1046 5.89543 27 7 27H25C26.1046 27 27 26.1046 27 25V15Z" fill="#7B57C2"/>
</svg>
