<svg width="18" height="18" viewBox="0 0 18 18" fill="none" xmlns="http://www.w3.org/2000/svg">
<path fill-rule="evenodd" clip-rule="evenodd" d="M3.63627 2.07825C5.38727 1.8208 7.17835 1.6875 9.00021 1.6875C10.8219 1.6875 12.6128 1.82077 14.3637 2.07818C15.8474 2.29633 16.875 3.59584 16.875 5.05542V9.56959C16.875 11.0292 15.8474 12.3287 14.3637 12.5468C13.5041 12.6732 12.6348 12.7697 11.7569 12.8351C11.6636 12.8421 11.5823 12.8906 11.5343 12.9626L9.46803 16.062C9.3637 16.2185 9.18807 16.3125 9 16.3125C8.81193 16.3125 8.6363 16.2185 8.53197 16.062L6.46569 12.9626C6.41767 12.8906 6.33639 12.842 6.24306 12.8351C5.36519 12.7696 4.49589 12.6731 3.63627 12.5467C2.15253 12.3286 1.125 11.0291 1.125 9.56951V5.05548C1.125 3.59591 2.15253 2.29641 3.63627 2.07825ZM5.0625 6.1875C5.0625 5.87684 5.31434 5.625 5.625 5.625H12.375C12.6857 5.625 12.9375 5.87684 12.9375 6.1875C12.9375 6.49816 12.6857 6.75 12.375 6.75H5.625C5.31434 6.75 5.0625 6.49816 5.0625 6.1875ZM5.625 7.875C5.31434 7.875 5.0625 8.12684 5.0625 8.4375C5.0625 8.74816 5.31434 9 5.625 9H9C9.31066 9 9.5625 8.74816 9.5625 8.4375C9.5625 8.12684 9.31066 7.875 9 7.875H5.625Z" fill="#4C4C4C"/>
</svg>
