<svg width="16" height="16" viewBox="0 0 16 16" fill="none" xmlns="http://www.w3.org/2000/svg">
<path d="M9.33334 6.66666V14.6667H2.66668C2.31305 14.6667 1.97392 14.5262 1.72387 14.2761C1.47382 14.0261 1.33334 13.687 1.33334 13.3333V6.66666H9.33334Z" fill="#6686FF"/>
<path d="M14.6667 6.66666V13.3333C14.6667 13.687 14.5262 14.0261 14.2761 14.2761C14.0261 14.5262 13.6869 14.6667 13.3333 14.6667H10.6667V6.66666H14.6667Z" fill="#6686FF"/>
<path d="M14.6667 2.66667V5.33334H1.33334V2.66667C1.33334 2.31305 1.47382 1.97391 1.72387 1.72386C1.97392 1.47381 2.31305 1.33334 2.66668 1.33334H13.3333C13.687 1.33334 14.0261 1.47381 14.2762 1.72386C14.5262 1.97391 14.6667 2.31305 14.6667 2.66667Z" fill="#6686FF"/>
</svg>
