<svg width="18" height="18" viewBox="0 0 18 18" fill="none" xmlns="http://www.w3.org/2000/svg">
<path fill-rule="evenodd" clip-rule="evenodd" d="M4.86563 1.8C4.16665 1.8 3.60001 2.36664 3.60001 3.06563V14.7094C3.60001 15.4084 4.16665 15.975 4.86563 15.975H13.4719C14.1709 15.975 14.7375 15.4084 14.7375 14.7094V9.39375C14.7375 7.99578 13.6042 6.8625 12.2063 6.8625H10.9406C10.2416 6.8625 9.67501 6.29586 9.67501 5.59688V4.33125C9.67501 2.93328 8.54173 1.8 7.14376 1.8H4.86563ZM6.13126 10.9125C6.13126 10.6329 6.35791 10.4063 6.63751 10.4063H11.7C11.9796 10.4063 12.2063 10.6329 12.2063 10.9125C12.2063 11.1921 11.9796 11.4188 11.7 11.4188H6.63751C6.35791 11.4188 6.13126 11.1921 6.13126 10.9125ZM6.63751 12.4313C6.35791 12.4313 6.13126 12.6579 6.13126 12.9375C6.13126 13.2171 6.35791 13.4438 6.63751 13.4438H9.16876C9.44835 13.4438 9.67501 13.2171 9.67501 12.9375C9.67501 12.6579 9.44835 12.4313 9.16876 12.4313H6.63751Z" fill="#4C4C4C"/>
<path d="M9.82431 2.01324C10.3621 2.63463 10.6875 3.44494 10.6875 4.33125V5.59688C10.6875 5.73668 10.8008 5.85 10.9406 5.85H12.2063C13.0926 5.85 13.9029 6.17538 14.5243 6.7132C13.925 4.41892 12.1186 2.61255 9.82431 2.01324Z" fill="#4C4C4C"/>
</svg>
