<svg width="20" height="20" viewBox="0 0 20 20" fill="none" xmlns="http://www.w3.org/2000/svg">
<path d="M7.8125 2.5C6.94956 2.5 6.25 3.19956 6.25 4.0625C6.25 4.92545 6.94956 5.625 7.8125 5.625H9.375V9.375H2.8125C1.94956 9.375 1.25 8.67545 1.25 7.8125V7.1875C1.25 6.32456 1.94956 5.625 2.8125 5.625H5.47361C5.17446 5.17809 5 4.64067 5 4.0625C5 2.5092 6.2592 1.25 7.8125 1.25C8.69602 1.25 9.48439 1.6574 10 2.29458C10.5156 1.6574 11.304 1.25 12.1875 1.25C13.7408 1.25 15 2.5092 15 4.0625C15 4.64067 14.8255 5.17809 14.5264 5.625H17.8125C18.6754 5.625 19.375 6.32455 19.375 7.1875V7.8125C19.375 8.67544 18.6754 9.375 17.8125 9.375H10.625V5.625H12.1875C13.0504 5.625 13.75 4.92545 13.75 4.0625C13.75 3.19956 13.0504 2.5 12.1875 2.5C11.3246 2.5 10.625 3.19956 10.625 4.0625V5.625H9.375V4.0625C9.375 3.19956 8.67545 2.5 7.8125 2.5Z" fill="black" fill-opacity="0.7"/>
<path d="M9.375 10.625H2.5V16.25C2.5 17.2855 3.33947 18.125 4.375 18.125H9.375V10.625Z" fill="black" fill-opacity="0.7"/>
<path d="M10.625 10.625V18.125H16.25C17.2855 18.125 18.125 17.2855 18.125 16.25V10.625H10.625Z" fill="black" fill-opacity="0.7"/>
</svg>
