<svg width="32" height="32" viewBox="0 0 32 32" fill="none" xmlns="http://www.w3.org/2000/svg">
<path fill-rule="evenodd" clip-rule="evenodd" d="M12 6C12.4465 6 12.8389 6.29598 12.9615 6.72528L14.0458 10.5202C14.5204 12.1812 15.8188 13.4796 17.4798 13.9542L21.2747 15.0385C21.704 15.1611 22 15.5535 22 16C22 16.4465 21.704 16.8389 21.2747 16.9615L17.4798 18.0458C15.8188 18.5204 14.5204 19.8188 14.0458 21.4798L12.9615 25.2747C12.8389 25.704 12.4465 26 12 26C11.5535 26 11.1611 25.704 11.0385 25.2747L9.95421 21.4798C9.47963 19.8188 8.18124 18.5204 6.5202 18.0458L2.72528 16.9615C2.29598 16.8389 2 16.4465 2 16C2 15.5535 2.29598 15.1611 2.72528 15.0385L6.5202 13.9542C8.18124 13.4796 9.47963 12.1812 9.95421 10.5202L11.0385 6.72528C11.1611 6.29598 11.5535 6 12 6Z" fill="#499955"/>
<path fill-rule="evenodd" clip-rule="evenodd" d="M24 2C24.4589 2 24.8589 2.3123 24.9701 2.75746L25.3153 4.13808C25.6288 5.39208 26.6079 6.3712 27.8619 6.6847L29.2425 7.02986C29.6877 7.14115 30 7.54113 30 8C30 8.45887 29.6877 8.85885 29.2425 8.97014L27.8619 9.3153C26.6079 9.6288 25.6288 10.6079 25.3153 11.8619L24.9701 13.2425C24.8589 13.6877 24.4589 14 24 14C23.5411 14 23.1411 13.6877 23.0299 13.2425L22.6847 11.8619C22.3712 10.6079 21.3921 9.6288 20.1381 9.3153L18.7575 8.97014C18.3123 8.85885 18 8.45887 18 8C18 7.54113 18.3123 7.14115 18.7575 7.02986L20.1381 6.6847C21.3921 6.3712 22.3712 5.39208 22.6847 4.13808L23.0299 2.75746C23.1411 2.3123 23.5411 2 24 2Z" fill="#499955"/>
<path fill-rule="evenodd" clip-rule="evenodd" d="M22 20C22.4304 20 22.8126 20.2754 22.9487 20.6838L23.4743 22.2607C23.6734 22.858 24.142 23.3266 24.7393 23.5257L26.3162 24.0513C26.7246 24.1874 27 24.5696 27 25C27 25.4304 26.7246 25.8126 26.3162 25.9487L24.7393 26.4743C24.142 26.6734 23.6734 27.142 23.4743 27.7393L22.9487 29.3162C22.8126 29.7246 22.4304 30 22 30C21.5696 30 21.1874 29.7246 21.0513 29.3162L20.5257 27.7393C20.3266 27.142 19.858 26.6734 19.2607 26.4743L17.6838 25.9487C17.2754 25.8126 17 25.4304 17 25C17 24.5696 17.2754 24.1874 17.6838 24.0513L19.2607 23.5257C19.858 23.3266 20.3266 22.858 20.5257 22.2607L21.0513 20.6838C21.1874 20.2754 21.5696 20 22 20Z" fill="#499955"/>
</svg>
