<svg width="18" height="18" viewBox="0 0 18 18" fill="none" xmlns="http://www.w3.org/2000/svg">
<path fill-rule="evenodd" clip-rule="evenodd" d="M14.5008 6.37712L12.2402 8.26092C12.3507 8.74704 12.3507 9.25297 12.2402 9.73908L14.5008 11.6229C15.2895 9.96869 15.2895 8.03132 14.5008 6.37712ZM11.6229 14.5008L9.73907 12.2402C9.25295 12.3507 8.74702 12.3507 8.26091 12.2402L6.3771 14.5008C8.0313 15.2895 9.96867 15.2895 11.6229 14.5008ZM3.4992 11.6229L5.75977 9.73908C5.64929 9.25297 5.64929 8.74704 5.75977 8.26092L3.4992 6.37712C2.71051 8.03132 2.71051 9.96869 3.4992 11.6229ZM6.3771 3.49922L8.26091 5.75978C8.74702 5.64931 9.25295 5.64931 9.73907 5.75978L11.6229 3.49922C9.96867 2.71052 8.0313 2.71052 6.3771 3.49922ZM12.7702 2.86427C13.2406 3.15379 13.6844 3.5021 14.0912 3.90883C14.4979 4.31557 14.8462 4.75943 15.1357 5.22978C16.5547 7.53512 16.5547 10.4649 15.1357 12.7702C14.8462 13.2406 14.4979 13.6844 14.0912 14.0912C13.6844 14.4979 13.2406 14.8462 12.7702 15.1357C10.4649 16.5548 7.53511 16.5548 5.22976 15.1357C4.75941 14.8462 4.31555 14.4979 3.90882 14.0912C3.50209 13.6844 3.15377 13.2406 2.86426 12.7702C1.44523 10.4649 1.44523 7.53512 2.86426 5.22978C3.15377 4.75943 3.50209 4.31557 3.90882 3.90883C4.31555 3.5021 4.75941 3.15379 5.22976 2.86427C7.53511 1.44525 10.4649 1.44525 12.7702 2.86427ZM10.5665 7.43349C10.3261 7.19308 10.0455 7.02024 9.7469 6.91364C9.26509 6.74161 8.73488 6.74161 8.25307 6.91364C7.9545 7.02024 7.67388 7.19308 7.43347 7.43349C7.19307 7.6739 7.02022 7.95451 6.91362 8.25309C6.7416 8.7349 6.7416 9.26511 6.91362 9.74692C7.02022 10.0455 7.19307 10.3261 7.43347 10.5665C7.67388 10.8069 7.9545 10.9798 8.25307 11.0864C8.73488 11.2584 9.26509 11.2584 9.7469 11.0864C10.0455 10.9798 10.3261 10.8069 10.5665 10.5665C10.8069 10.3261 10.9798 10.0455 11.0864 9.74692C11.2584 9.26511 11.2584 8.7349 11.0864 8.25309C10.9798 7.95451 10.8069 7.6739 10.5665 7.43349Z" fill="#4C4C4C"/>
</svg>
